<?xml version="1.0" encoding="utf-8"?>
<!-- Generator: Adobe Illustrator 24.0.1, SVG Export Plug-In . SVG Version: 6.00 Build 0)  -->
<svg version="1.1" id="Layer_1" xmlns="http://www.w3.org/2000/svg" xmlns:xlink="http://www.w3.org/1999/xlink" x="0px" y="0px"
	 viewBox="0 0 148 55" style="enable-background:new 0 0 148 55;" xml:space="preserve">
<style type="text/css">
	.st0{fill:#FFFFFF;}
	.st1{fill:#00367a;}
</style>
<ellipse class="st0" cx="74" cy="27.5" rx="73.2" ry="26.6"/>
<path class="st1" d="M74,51.8c-37.9,0-68.7-10.9-68.7-24.3C5.3,14.1,36.1,3.2,74,3.2s68.7,10.9,68.7,24.3
	C142.7,40.9,111.9,51.8,74,51.8z"/>
<path class="st0" d="M132.5,32c-0.9,0-1.6,0.8-1.6,1.7c0,0.9,0.8,1.7,1.7,1.6c0.9,0,1.6-0.8,1.6-1.7C134.1,32.8,133.4,32,132.5,32z
	 M132.5,35.1c-0.8,0-1.4-0.6-1.4-1.4c0-0.8,0.6-1.4,1.4-1.4c0.8,0,1.4,0.6,1.4,1.4C133.9,34.5,133.3,35.1,132.5,35.1z"/>
<path class="st0" d="M22.3,23.6c0.9,0,1.6,0.3,2.4,1l2.3-3.3c-1.2-1.1-2.6-1.7-4.4-1.7c-5.1,0-8.7,3.9-8.7,8.7
	c0,3.7,2.1,6.7,6.4,6.7c1.5,0,3.5-0.4,5.3-1.7L23.9,30c-0.6,0.6-1.6,1.1-2.7,1.1c-1.9,0-3-1.4-3-3.2C18.2,25.8,19.7,23.6,22.3,23.6z
	"/>
<polygon class="st0" points="36.4,19.9 33.6,24.2 32.2,19.9 27.4,19.9 30.9,28.2 29.8,34.9 33.9,34.9 35,28.3 41.2,19.9 "/>
<path class="st0" d="M47.4,23.6c0.9,0,1.6,0.3,2.4,1l2.3-3.3c-1.2-1.1-2.6-1.7-4.4-1.7c-5.1,0-8.7,3.9-8.7,8.7
	c0,3.7,2.1,6.7,6.4,6.7c1.5,0,3.5-0.4,5.3-1.7L49,30c-0.6,0.6-1.6,1.1-2.7,1.1c-1.9,0-3-1.4-3-3.2C43.3,25.8,44.9,23.6,47.4,23.6z"
	/>
<polygon class="st0" points="58.7,19.9 54.5,19.9 52.1,34.9 60.7,34.9 61.3,31.3 56.8,31.3 "/>
<polygon class="st0" points="62.2,34.9 71.3,34.9 71.8,31.3 67,31.3 67.3,29 70.5,29 71,25.7 67.9,25.7 68.3,23.4 73.1,23.4
	73.7,19.9 64.7,19.9 "/>
<path class="st0" d="M83.9,29.3h2.7c-0.6,1.4-1.7,1.9-2.8,1.9c-1.7,0-2.7-1.5-2.7-3.3c0-2.1,1.5-4.3,4.1-4.3c0.9,0,1.6,0.3,2.4,1
	l2.3-3.3c-1.2-1.1-2.6-1.7-4.4-1.7c-5.2,0-8.7,3.9-8.7,8.7c0,3.7,2.1,6.7,6.4,6.7c5.3,0,7.2-4.1,7.5-7.4l0.1-1.4h-6.3L83.9,29.3z"/>
<polygon class="st0" points="102.3,23.4 102.9,19.9 93.8,19.9 91.4,34.9 100.4,34.9 101,31.3 96.1,31.3 96.5,29 99.6,29 100.1,25.7
	97,25.7 97.4,23.4 "/>
<path class="st0" d="M109,19.9l-7.3,15h4.5l1-2.1h4.3l0.3,2.1h4.5l-2.4-15H109z M108.4,29.8l2-4.4l0.6,4.4H108.4z"/>
<path class="st0" d="M129.9,23.9c0-1.2-0.4-2.2-1.1-2.9c-0.9-0.8-2.2-1.2-4.2-1.2h-4.8l-2.4,15h4.1l0.9-5.2l1.7,5.2h4.7l-2.4-5.4
	C128.5,28.9,129.9,26.2,129.9,23.9z M123.5,26.7h-0.6l0.5-3.3h1c0.8,0,1.3,0.5,1.3,1.3C125.6,25.6,125.1,26.7,123.5,26.7z"/>
<path class="st0" d="M133.1,33.3c0-0.1,0-0.2-0.1-0.3c-0.1-0.1-0.2-0.1-0.5-0.1h-0.5l-0.3,1.7h0.3l0.1-0.6l0.1,0l0.3,0.6h0.3
	l-0.3-0.6C132.9,33.8,133.1,33.5,133.1,33.3z M132.5,33.6h-0.3l0.1-0.5h0.3c0.1,0,0.2,0.1,0.2,0.2C132.8,33.4,132.7,33.6,132.5,33.6
	z"/>
</svg>
